<svg width="625" height="567" viewBox="0 0 625 567" fill="none" xmlns="http://www.w3.org/2000/svg">
<path d="M586.573 538.136C586.573 549.896 455.387 559.429 293.56 559.429C131.747 559.429 0.560059 549.896 0.560059 538.136C0.560059 526.376 131.747 516.843 293.56 516.843C455.387 516.843 586.573 526.376 586.573 538.136Z" fill="#653870"/>
<path d="M124.6 507.31C124.6 514.456 129.24 520.243 134.96 520.243C140.68 520.243 145.32 514.456 145.32 507.31C145.32 500.163 140.68 494.363 134.96 494.363C129.24 494.363 124.6 500.163 124.6 507.31Z" fill="#381A3F"/>
<path d="M190.773 497.016H180.56V349.79H190.773V497.016Z" fill="#381A3F"/>
<path d="M130.533 497.016H237.613V491.256H130.533V497.016Z" fill="#381A3F"/>
<path d="M134.96 517.363C139.12 517.363 142.507 512.856 142.507 507.309C142.507 501.763 139.12 497.243 134.96 497.243C130.8 497.243 127.427 501.763 127.427 507.309C127.427 512.856 130.8 517.363 134.96 517.363Z" fill="#573A5E"/>
<path d="M227.347 504.323C227.347 511.469 231.973 517.256 237.707 517.256C243.427 517.256 248.067 511.469 248.067 504.323C248.067 497.176 243.427 491.376 237.707 491.376C231.973 491.376 227.347 497.176 227.347 504.323Z" fill="#381A3F"/>
<path d="M237.707 510.67C241.853 510.67 245.24 506.256 245.24 500.843C245.24 495.416 241.853 491.003 237.707 491.003C233.547 491.003 230.16 495.416 230.16 500.843C230.16 506.256 233.547 510.67 237.707 510.67Z" fill="#573A5E"/>
<path d="M107.68 324.896L129.12 352.63L281.36 348.39L232.76 315.043L107.68 324.896" fill="#002B32"/>
<path d="M199.346 145.136H81.4666L101.96 326.856L204.4 314.47L199.346 145.136Z" fill="#002B32"/>
<path d="M276.067 366.35L133.64 370.59L129.12 352.63L281.36 348.39L276.067 366.35" fill="#083A2B"/>
<path d="M290.72 308.963L289.573 305.51L232.76 290.376L246.12 330.67L290.72 308.963" fill="#037399"/>
<path d="M191.84 248.776C186.773 224.803 191.306 178.896 185.666 160.563C180.026 142.243 169.293 105.723 169.293 105.723H107.973C107.973 105.723 114.32 169.856 107.973 176.203C107.973 176.203 126.293 249.496 126.293 263.59C126.293 273.096 117.973 279.07 112.546 297.296C112.546 297.296 108.92 318.083 115.027 324.19C121.133 330.296 158.627 359.43 158.627 359.43L226.733 358.136L290.72 317.016L289.573 305.51C289.573 305.51 271.026 293.176 239.546 280.03C208.066 266.87 191.84 248.776 191.84 248.776Z" fill="#013C66"/>
<path d="M180.56 114.843C180.56 114.843 194.107 127.35 202.56 139.19C211.027 151.03 248.467 210.216 239.067 227.523C229.667 244.83 212.2 224.803 212.2 224.803L184.56 173.763L180.56 114.843" fill="#42AEBC"/>
<path d="M232.76 290.376C232.76 290.376 207.413 277.496 196.733 260.563C187.227 245.51 174.6 216.136 170.267 193.376C170.267 193.376 170.267 158.096 170.267 155.87L169.293 105.403C169.293 105.403 176.893 106.856 186.773 121.47C196.64 136.083 196.026 214.189 191.84 235.709C187.813 256.403 225.573 267.563 249.173 279.43C270.92 290.376 289.573 305.51 289.573 305.51L268.213 296.523L232.76 290.376" fill="#5CD4ED"/>
<path d="M239.093 210.216L193.787 194.283C193.787 194.283 193.787 212.043 193.787 214.776C193.787 217.51 216.08 230.936 225.187 236.136C248.893 249.683 239.093 210.216 239.093 210.216Z" fill="#9DE5F4"/>
<path d="M165.013 208.696C165.013 208.696 162.907 206.71 166.427 201.656C169.947 196.603 179.653 195.003 179.653 195.003L193.68 198.296V212.07C193.68 212.07 186.4 218.03 181.933 218.03C177.467 218.03 169.48 218.19 166.667 216.35C163.84 214.51 170.653 213.283 170.653 213.283C170.653 213.283 164.387 215.31 164.387 212.47C164.387 209.616 169.48 206.523 169.48 206.523C169.48 206.523 166.893 208.696 165.013 208.696" fill="#FC7575"/>
<path d="M189.64 108.163L169.293 105.723L170.267 193.376L183.733 149.55L177.746 146.95L186.56 141.656L189.64 108.163Z" fill="#9DE5F4"/>
<path d="M171.613 356.523C176.466 361.363 208.8 356.683 230.973 359.443C257.8 362.67 303.853 343.883 289.587 305.51C289.307 305.456 257.506 291.096 237.6 306.67C234.746 308.95 228.2 305.483 223.706 303.403C220.346 301.883 166.613 351.536 171.613 356.523Z" fill="#34173A"/>
<path d="M107.68 295.256C110.373 279.336 123.693 269.123 126.293 263.59C138.28 238.216 107.973 176.203 107.973 176.203V105.723H129.12L156.48 193.376L157.6 244.323C157.6 244.323 163.827 265.39 177.52 279.083C188.52 290.083 196.053 290.376 196.053 290.376C196.053 290.376 170.267 291.776 158.627 309.163C146.987 326.55 158.627 359.43 158.627 359.43C158.627 359.43 124.667 340.096 115.973 331.403C107.28 322.71 107.68 295.256 107.68 295.256" fill="#5CD4ED"/>
<path d="M171.613 356.523L210.866 347.696L246.12 310.11L239.573 305.256C238.893 305.683 238.253 306.163 237.6 306.67C235.626 308.256 232.133 307.15 228.266 305.456C226.773 304.816 225.226 304.11 223.706 303.403C220.346 301.883 166.613 351.536 171.613 356.523" fill="#FD5E5A"/>
<path d="M228.213 359.19C234.08 405.91 242.827 482.79 239.76 496.136C239.133 498.843 236.653 501.336 236.373 503.576C235.36 511.576 236.147 516.403 236.147 516.403L281.36 516.843C281.36 509.803 260.213 508.39 256.947 494.776C253.867 482.056 272.027 393.056 277.093 347.07C277.467 343.683 277.773 340.563 278 337.71C279.613 316.616 277.973 305.99 273.947 300.67C263.027 298.47 248.507 298.016 237.6 306.67C235.627 308.256 232.133 307.15 228.267 305.456C224.213 308.056 221.613 310.11 221.613 310.11C221.613 310.11 224.693 331.39 228.213 359.19Z" fill="#FD5E5A"/>
<path d="M133.64 370.59L129.12 352.63L107.68 324.896L81.1999 145.71C81.1999 145.71 78.8532 147.056 75.7999 158.563C72.7332 170.07 96.2398 330.67 96.2398 330.67L133.64 370.59Z" fill="#015941"/>
<path d="M411.987 536.469H532.28V244.283H411.987V536.469Z" fill="#5CD4ED"/>
<path d="M411.987 536.469H353.72V244.283H411.987V536.469Z" fill="#013C66"/>
<path d="M23.4131 265.563H541.2V254.283H23.4131V265.563Z" fill="#34173A"/>
<path d="M64.2799 536.656H53.9465V254.283H64.2799V536.656Z" fill="#013C66"/>
<path d="M205.24 319.016C209.187 312.136 215.68 304.55 223.707 303.403C238.733 301.243 248.76 311.056 259.56 355.843C270.92 402.923 285.693 471.15 293.107 485.35C304.387 506.976 308.613 523.416 311.92 526.71C315.187 530.016 319.413 538.923 305.8 536.11C292.187 533.283 286.907 520.603 284.147 513.55C281.36 506.496 274.787 500.416 272.44 498.043C270.08 495.696 276.68 486.763 273.373 479.723C270.507 473.603 225.533 391.763 213.693 358.883C211.92 353.87 210.867 350.003 210.867 347.696C210.867 347.696 197.733 332.19 205.24 319.016" fill="#FC7575"/>
<path d="M300.053 522.456C304.08 522.456 305.427 517.749 305.827 513.723C308.533 520.509 310.333 525.123 311.92 526.709C315.187 530.016 319.413 538.923 305.8 536.096C292.187 533.283 286.907 520.603 284.147 513.549C281.36 506.496 274.787 500.416 272.44 498.043C270.867 496.483 273.28 491.963 274.08 487.043C274.44 487.723 293.067 522.456 300.053 522.456Z" fill="#1C3135"/>
<path d="M110.787 105.723L125.587 152.23L132.28 154.003L129.12 158.23L156.48 193.376L129.12 105.723H110.787" fill="#9DE5F4"/>
<path d="M248.827 509.763C252.413 511.216 264.293 509.63 271.12 508.656C276.52 511.39 281.36 513.483 281.36 516.843L236.146 516.403C236.146 516.403 235.36 511.576 236.373 503.576C239.813 503.63 244.413 507.976 248.827 509.763Z" fill="#1C3135"/>
<path d="M120.24 216.71C120.4 216.71 120.88 216.576 121.613 216.35C125.88 215.016 138.506 210.536 142.6 212.11C147.386 213.95 162.453 235.99 158.8 235.99C155.16 235.99 148.08 227.03 148.08 227.03C148.08 227.03 149.68 232.683 146.026 232.683C146.026 232.683 143.973 237.83 141.693 237.83C139.4 237.83 134.84 236.723 134.84 236.723C134.84 236.723 125.026 231.216 118.64 231.216C112.253 231.216 111.106 231.03 111.106 231.03V219.83L120.24 216.71" fill="#FC7575"/>
<path d="M115.64 108.163C115.64 108.163 115.213 174.616 109.733 179.816C109.733 179.816 87.8267 195.243 92.3867 201.976C96.96 208.71 117.667 215.403 117.667 215.403L114.76 235.43C114.76 235.43 76.88 238.176 62.4933 226.27C48.12 214.363 89.16 115.323 115.64 108.163" fill="#9DE5F4"/>
<path d="M129.746 78.4429C129.746 78.4429 111.64 87.2829 105.28 98.4829C98.9065 109.696 95.2131 120.75 95.2131 120.75L101.587 123.603C101.587 123.603 102.427 117.91 104.6 113.883L100.613 134.603L108.96 137.19C108.96 137.19 114.066 122.883 115.84 114.39L111.08 137.19L119.52 138.283C119.52 138.283 124.853 130.23 124.853 122.51L124.053 138.283L141.667 139.51C141.667 139.51 140.827 109.536 140.067 94.6029C139.827 89.8429 138.906 84.4829 137.746 81.8829C135.266 76.3096 129.746 78.4429 129.746 78.4429" fill="#002B32"/>
<path d="M126.546 79.4962L126.76 79.7762C129.08 82.8829 132.88 84.5095 136.72 84.0562L138.893 83.8029L141.666 75.8429L129.32 71.5496L126.546 79.4962" fill="#3BD7E6"/>
<path d="M146.067 6.64283H144.947C144.947 6.64283 129.973 7.50952 126.28 11.2029C122.587 14.8962 121.293 50.2295 124.853 61.8562C128.413 73.4828 138.92 83.9895 153 81.5228C167.08 79.0695 169.32 81.0829 172.453 61.4029C175.573 41.7362 150.76 4.84283 146.067 6.64283Z" fill="#002B32"/>
<path d="M166.64 74.1495C167.64 75.1495 163.573 104.189 167.6 112.243C167.6 112.243 166.867 126.936 159.667 127.803C153.413 128.55 142.067 121.123 140.813 115.389C139.147 107.683 140.813 69.1228 140.813 69.1228L166.64 74.1495" fill="#FC7575"/>
<path d="M166.227 86.1629C156.667 94.8029 147.667 90.8829 140.427 80.0429C140.587 74.5895 140.8 69.4296 140.813 69.1229L166.64 74.1496C167.053 74.5629 166.613 79.6963 166.227 86.1629" fill="#FD5E5A"/>
<path d="M163.627 8.89641C163.627 8.89641 175.72 11.1897 177.16 21.5631C178.6 31.9364 180.613 40.5764 178.6 52.6697C176.586 64.7631 169.386 80.8964 157.573 83.4831C145.76 86.0831 133.387 66.4964 133.387 55.843C133.387 45.1764 129.053 27.323 137.12 16.3764C145.187 5.42969 163.627 8.89641 163.627 8.89641" fill="#FC7575"/>
<path d="M163.626 8.89637C163.626 8.89637 175.72 11.1897 177.16 21.563C178.466 30.963 180.24 38.9364 179.066 49.363C177.133 48.0297 174.4 46.6964 170.56 45.4297C157.36 41.0697 145.547 15.5497 145.053 14.4697L144.84 14.0164L144.813 13.523C144.76 12.5097 144.88 11.443 145.173 10.3763C153.666 7.01632 163.626 8.89637 163.626 8.89637Z" fill="#FD5E5A"/>
<path d="M136.546 49.7896C136.546 49.7896 131.946 44.4563 129.64 42.1629C127.333 39.8563 121.573 17.0962 127.333 9.32289C133.093 1.54955 144.12 1.10954 152.933 0.109541C161.746 -0.903793 175.733 5.81625 176.52 18.9496C176.52 18.9496 153.826 10.3362 147.493 13.3496C141.16 16.3762 138.56 19.9763 137.266 27.0296C135.973 34.0963 136.546 49.7896 136.546 49.7896Z" fill="#002B32"/>
<path d="M136.546 49.7896C136.546 49.7896 133.467 36.4163 128.333 39.6429C123.2 42.8696 128.707 57.683 133.493 57.683C138.28 57.683 136.546 49.7896 136.546 49.7896Z" fill="#FC7575"/>
<path d="M131.56 42.4563C131.56 42.4563 139.146 54.6163 133.946 53.2696C128.746 51.9363 126.693 40.203 131.56 42.4563Z" fill="#FD5E5A"/>
<path d="M127.56 79.1229C120.733 81.3229 114.147 84.3229 108.067 88.2696C105.027 90.2696 102.2 92.4829 99.4132 94.7896C96.6266 97.1496 93.96 99.4563 91.52 102.523L93.76 104.003C95.7067 101.403 98.3733 98.8696 100.973 96.5363C103.613 94.2029 106.373 91.9229 109.213 89.9229C112.093 87.9096 115.147 86.1229 118.293 84.5496C121.427 82.9629 124.707 81.5363 127.973 80.3896L127.56 79.1229" fill="#3BD7E6"/>
<path d="M129.533 79.4695C125.32 81.3628 121.32 83.7095 117.48 86.2962C113.653 88.8829 110.027 91.7895 106.627 94.9629C103.2 98.0962 100.067 101.576 97.2799 105.323C94.3732 109.003 92.1066 113.136 89.96 117.323L92.4132 118.403C94.2799 114.296 96.2666 110.203 98.9066 106.496C101.453 102.723 104.347 99.1762 107.56 95.9228C110.747 92.6428 114.2 89.5895 117.867 86.8428C121.547 84.0828 125.427 81.5628 129.533 79.4695" fill="#3BD7E6"/>
<path d="M163.733 57.6963C163.413 54.3896 163.2 51.083 163.227 47.7496C163.96 51.963 164.133 55.0429 164.387 58.1096C162.627 58.5896 160.507 59.5763 157.867 58.5763C159.88 58.9629 161.893 58.3896 163.733 57.6963" fill="#172866"/>
<path d="M157.187 47.4297C156.587 45.5231 154.96 43.6964 152.733 43.1097C148.787 42.0697 146.373 47.763 143.667 47.7097C145.613 48.7097 148.72 45.3764 150.853 44.5364C152.027 44.0697 153.04 44.3897 154.187 44.9364C155.307 45.5097 156.293 46.3897 157.187 47.4297Z" fill="#172866"/>
<path d="M150.04 45.723C150.04 46.923 150.893 47.8964 151.96 47.8964C153.013 47.8964 153.88 46.923 153.88 45.723C153.88 44.523 153.013 43.5497 151.96 43.5497C150.893 43.5497 150.04 44.523 150.04 45.723Z" fill="#172866"/>
<path d="M165.973 48.6696C166.653 46.7896 168.373 45.043 170.613 44.5496C174.613 43.6963 176.76 49.4963 179.467 49.563C177.48 50.4697 174.52 47.0029 172.427 46.0563C171.28 45.5363 170.24 45.8163 169.08 46.3096C167.946 46.8296 166.906 47.6696 165.973 48.6696Z" fill="#172866"/>
<path d="M173.2 47.2829C173.147 48.4829 172.24 49.4163 171.173 49.3629C170.12 49.3229 169.293 48.3096 169.36 47.1096C169.413 45.9096 170.307 44.9763 171.373 45.0163C172.427 45.0696 173.253 46.0829 173.2 47.2829" fill="#172866"/>
<path d="M158.587 38.2163C159.013 37.9363 155.573 34.4697 151.44 34.083C147.293 33.683 142.827 38.2163 142.827 38.2163C142.827 38.2163 148.92 34.5763 151.493 35.7497C154.067 36.923 156.2 39.763 158.587 38.2163Z" fill="#172866"/>
<path d="M164.293 69.5496C164.747 69.4963 164.627 68.8163 164.2 68.8963C164.133 68.8963 157.333 69.8163 151.693 65.3496C151.333 65.083 150.92 65.603 151.267 65.883C155.107 68.9096 160.56 70.123 164.293 69.5496Z" fill="#172866"/>
<path d="M159.226 71.7495C159.4 71.7495 159.546 71.6161 159.56 71.4428C159.613 70.6028 154.613 71.2028 152.746 68.1495C152.506 67.7762 151.946 68.1228 152.173 68.5095C153.893 71.3228 158.973 71.7362 159.2 71.7495C159.2 71.7495 159.213 71.7495 159.226 71.7495" fill="#172866"/>
<path d="M143.213 44.2163C142.04 44.2163 141.093 45.1629 141.093 46.3229V49.7896C141.093 50.9629 142.04 51.9096 143.213 51.9096H157.933C159.093 51.9096 160.04 50.9629 160.04 49.7896V46.3229C160.04 45.1629 159.093 44.2163 157.933 44.2163H143.213ZM139.747 49.7896V46.3229C139.747 44.4296 141.307 42.8696 143.213 42.8696H157.933C159.84 42.8696 161.387 44.4296 161.387 46.3229V49.7896C161.387 51.6963 159.84 53.2429 157.933 53.2429H143.213C141.307 53.2429 139.747 51.6963 139.747 49.7896Z" fill="black"/>
<path d="M167.52 44.2163C166.666 44.2163 165.96 44.9096 165.96 45.763V50.3496C165.96 51.203 166.666 51.9096 167.52 51.9096H180.733C181.586 51.9096 182.28 51.203 182.28 50.3496V45.763C182.28 44.9096 181.586 44.2163 180.733 44.2163H167.52ZM164.626 50.3496V45.763C164.626 44.1763 165.92 42.8696 167.52 42.8696H180.733C182.333 42.8696 183.626 44.1763 183.626 45.763V50.3496C183.626 51.9496 182.333 53.2429 180.733 53.2429H167.52C165.92 53.2429 164.626 51.9496 164.626 50.3496Z" fill="black"/>
<path d="M188.253 31.0696C179.173 21.9896 175.827 4.93628 164.747 2.48295C153.653 0.0429468 147.187 8.37628 147.493 13.3496C147.493 13.3496 159.16 38.8429 171.4 42.8696C183.64 46.9096 187.667 52.5229 185.373 59.7229C183.067 66.9229 179.453 64.9096 179.453 64.9096C179.453 64.9096 186.373 70.5229 190.693 61.8829C195.013 53.2429 197.32 40.1363 188.253 31.0696" fill="#034147"/>
<path d="M179.453 64.9096C183.653 67.3629 189.587 57.0696 185.253 50.3363C182.107 45.1363 175.213 42.9496 169.706 40.6696C160.973 35.6563 152.586 21.8163 147.493 13.3496C151.186 23.4429 159 37.443 168.426 43.0296L170.693 44.0163C173.026 44.9496 180.12 46.8563 183.546 51.4829C186.306 55.1096 184.986 60.7363 183.16 63.3896C182.373 64.5496 180.947 65.4429 179.453 64.9096Z" fill="#023135"/>
<path d="M165.147 48.4163H161.12V47.0829H165.147V48.4163Z" fill="black"/>
<path d="M13.4268 235.296H564.227V254.283H13.4268V235.296Z" fill="#F0E6A6"/>
<path d="M483.307 327.483C486.093 327.496 533.853 340.736 531.213 312.003C528.573 283.27 531.733 254.616 547.36 248.776C581.107 236.176 624.013 248.936 624.013 248.936L578.453 331.443L547.933 378.603L503.853 374.91L416.16 385.203C416.16 385.203 424.267 327.123 483.307 327.483" fill="#34173A"/>
<path d="M541.986 372.283L555.2 372.363L573.24 550.03L570.8 550.003L541.986 372.283Z" fill="#381A3F"/>
<path d="M457.373 371.763L444.16 371.683L423.947 549.109L426.387 549.123L457.373 371.763" fill="#381A3F"/>
<path d="M624.013 249.23C623.946 260.176 581.16 361.336 575.2 373.99C560.267 405.736 498.733 382.23 482.387 385.776C466.027 389.323 432.72 403.096 417.56 394.496C402.413 385.896 420.013 362.283 456.053 362.51C492.093 362.723 519.373 380.643 540.92 357.67C562.453 334.696 559.573 288.963 572.12 261.67C584.68 234.39 624.013 249.23 624.013 249.23Z" fill="#015941"/>
<path d="M479.88 140.616C465.773 143.923 461.053 157.483 456.373 171.19C442.693 211.203 422.88 255.656 426.106 272.136C430.4 294.123 445.027 265.896 445.027 265.896L463.693 215.63L479.88 140.616Z" fill="#FD5E5A"/>
<path d="M479.88 140.616C479.88 140.616 463.68 172.99 461.867 187.576C456.8 228.296 483.347 293.376 469.227 307.003C460.973 314.95 438.627 314.99 411.773 317.39C386.093 319.683 343.48 324.003 335.76 344.816C335.76 344.816 383.147 349.003 403.293 366.31C423.44 383.603 435.2 397.176 435.2 397.176C435.2 397.176 443.533 384.136 461.92 377.15C483.72 368.87 503.853 374.91 528.6 365.563C570.453 349.75 528.52 304.176 528.52 266.95C528.52 236.763 531.52 138.47 528.573 138.123C510.36 136.016 479.88 140.616 479.88 140.616" fill="#D24307"/>
<path d="M514.893 89.9495C514.893 89.9495 516.413 136.723 512.2 145.283C507.987 153.83 490.387 151.816 488.587 147.456C486.787 143.083 493.987 95.2695 493.987 95.2695L514.893 89.9495" fill="#FC7575"/>
<path d="M491.947 109.563C493.053 101.456 493.987 95.2696 493.987 95.2696L514.893 89.9496C514.893 89.9496 504.453 104.35 501.067 106.456C497.8 108.496 494.707 109.39 491.947 109.563" fill="#FD5E5A"/>
<path d="M518.613 34.7496C518.613 34.7496 513.2 21.6429 519.627 15.3896C526.053 9.12293 540.013 10.7896 544.787 27.8029C549.56 44.8163 547.987 56.523 535.347 52.6963C522.72 48.8696 518.613 34.7496 518.613 34.7496" fill="#2846A6"/>
<path d="M487.893 30.323C487.893 30.323 479.173 30.1096 477.706 43.5096C476.24 56.8963 477.76 65.2563 476.293 67.2697C474.826 69.2697 471.413 71.283 471.413 71.283C471.413 71.283 472.026 73.9496 473.906 74.803C475.786 75.643 476.546 78.203 476.613 78.963C476.693 79.723 475.28 79.8563 475.4 81.203C475.52 82.5497 477.44 84.6697 477.44 84.6697C477.44 84.6697 476.306 86.1363 476.426 87.483C476.56 88.8297 478.733 90.5096 478.733 90.5096C478.733 90.5096 479.48 95.363 479.733 98.0563C479.986 100.763 489.213 106.536 500.48 100.056C511.733 93.5763 544.027 82.443 528.52 54.2963C513.013 26.1363 487.893 30.323 487.893 30.323" fill="#FC7575"/>
<path d="M508.613 76.0163C508.08 76.7497 516.8 81.3763 514.96 92.323C513.12 103.256 527.68 94.4297 532.187 85.6297C536.707 76.8297 538.467 56.9763 532.213 47.683C525.947 38.3763 525.987 40.8696 520.08 33.2563C514.173 25.6296 486.76 23.923 482.387 32.643C478.027 41.363 488.133 52.9496 497.907 57.5096C507.667 62.083 508.613 76.0163 508.613 76.0163Z" fill="#111F59"/>
<path d="M484.027 30.6562C483.227 30.7362 466.36 25.7362 469.267 37.7095C472.173 49.6829 483.986 58.5096 497.773 60.4162C511.546 62.3229 518.32 66.2829 510.92 72.8562C510.92 72.8562 519.947 70.8962 519.453 65.4962C518.947 60.1096 506.733 54.8829 500.44 52.0562C494.133 49.2429 485.146 30.9362 485.146 30.9362L484.027 30.6562" fill="#2846A6"/>
<path d="M501.293 70.3497C501.293 70.3497 500.76 58.1497 506.92 59.8564C513.08 61.5497 510.973 79.883 505.52 80.3897C500.053 80.883 501.293 70.3497 501.293 70.3497Z" fill="#FC7575"/>
<path d="M503.866 68.4562C503.866 68.4562 504.133 61.5096 506.746 62.7496C509.36 63.9763 510.16 77.0562 506.92 76.6696C503.693 76.2829 503.866 68.4562 503.866 68.4562" fill="#FD5E5A"/>
<path d="M482.253 83.8563C480.827 84.763 479.08 85.0297 477.44 84.6697C479.067 85.243 480.853 85.2563 482.587 84.4297C482.733 84.363 482.8 84.163 482.733 83.9896C482.667 83.8163 482.493 83.7363 482.347 83.803C482.333 83.803 482.32 83.8163 482.32 83.8163L482.253 83.8563" fill="#2846A6"/>
<path d="M479.467 63.6963C479.467 63.6963 478.12 64.4563 478.267 65.9497C478.4 67.443 479.88 68.1096 479.88 68.1096L479.467 63.6963" fill="#2846A6"/>
<path d="M484.08 67.323C484.08 67.323 481.6 64.3897 479.987 62.883C478.373 61.363 474.173 61.1097 474.173 61.1097L484.08 67.323" fill="#172866"/>
<path d="M484.733 59.2163C484.733 59.2163 481.307 55.803 478.787 55.3496C476.253 54.9096 477.946 58.403 477.946 58.403C477.946 58.403 477.173 56.1763 484.733 59.2163Z" fill="#172866"/>
<path d="M363.96 338.283C357.013 334.696 340.893 329.016 334.627 347.669C330.733 359.256 345.813 379.829 354.667 388.776C363.533 397.736 453.067 503.816 453.067 503.816C453.067 503.816 481.84 549.709 481.84 554.176C481.84 558.656 480.467 567.336 487.373 560.336C494.293 553.336 481.84 522.283 487.373 512.203C492.907 502.136 484.053 504.936 474.093 501.016C464.133 497.096 419.307 416.509 405.467 391.323C391.64 366.136 378.84 345.989 363.96 338.283" fill="#FD5E5A"/>
<path d="M487.373 512.203C492.307 503.229 485.827 504.47 477.307 502.083C477.293 504.87 477.48 510.296 478.76 518.016C478.76 518.016 483.373 549.323 481.867 553.269C481.827 553.363 481.787 553.483 481.747 553.589C481.813 553.829 481.84 554.029 481.84 554.176C481.84 558.656 480.467 567.336 487.373 560.336C494.293 553.336 481.84 522.283 487.373 512.203Z" fill="#8B2D5F"/>
<path d="M380.627 329.136C380.627 329.136 395.387 316.31 409.267 332.296C423.147 348.283 488.88 520.23 492.707 529.603C496.547 538.963 503.88 548.27 503.88 548.27C504.44 548.91 504.307 561.736 501.32 562.963C497.213 564.656 487.467 555.896 487.467 555.896C487.467 555.896 484.573 538.39 469.493 513.723C454.427 489.07 384.773 384.976 377.12 366.243C369.453 347.51 373.747 332.91 380.627 329.136" fill="#FC7575"/>
<path d="M487.467 555.896C487.467 555.896 493.427 570.27 502.56 566.256C508.987 563.43 506 551.456 503.88 548.27C503.88 548.27 501.227 565.003 487.467 555.896Z" fill="#8B2D5F"/>
<path d="M444.946 266.203C442.653 275.323 465.146 320.816 465.293 320.896C467.373 322.11 474.8 327.95 479.493 332.056C484.173 336.176 489.626 336.443 490.333 338.19C490.893 339.603 487.12 340.323 484.08 337.95C481.093 335.616 476.04 331.763 474.866 335.056C473.706 338.283 492.013 351.163 492.2 351.296C494 352.536 496.96 355.163 494.866 355.403C493.68 355.31 487.64 351.443 484.28 348.736C478.44 344.043 476.533 342.616 475.493 342.723C475.053 343.416 478.773 346.51 486.76 353.563C495.533 361.31 498.36 369.496 481.587 352.723C476.973 348.11 472.8 344.856 472.48 345.35C471.506 346.883 474.72 349.75 477.466 352.67C480.133 355.51 485.747 362.03 481.72 361.07C480.867 360.683 477.533 356.616 475.093 353.656C469.813 347.216 468.2 345.47 466.973 345.43C465.293 348.056 471.96 354.51 474.6 358.256C475 358.816 474.293 359.376 473.706 358.95C471.32 357.176 467.227 353.123 463.453 347.416C459.547 341.496 454.76 331.163 452.173 324.923C451.16 324.256 429.16 289.75 426.106 272.136C432.133 269.643 438.666 267.683 445.026 265.896C445 266.003 444.96 266.11 444.946 266.203Z" fill="#FD5E5A"/>
<path d="M528.573 138.123C528.573 138.123 511.453 146.003 518.32 168.096C525.187 190.19 529.507 235.603 527.907 248.71C526.293 261.83 483.507 308.603 483.32 308.63C480.667 309.056 470.507 312.576 463.907 315.35C457.307 318.136 451.587 315.496 450.12 317.376C448.933 318.896 452.493 321.91 456.653 320.483C460.72 319.096 467.587 316.856 467.36 321.776C467.147 326.616 442.773 333.31 442.533 333.376C440.133 334.003 435.96 335.79 438.013 337.256C439.267 337.776 447.147 336.07 451.76 334.403C459.8 331.496 462.373 330.683 463.387 331.403C463.533 332.536 458.387 334.523 447.12 339.31C434.76 344.563 428.32 353.643 452.8 341.056C459.547 337.59 465.227 335.643 465.347 336.47C465.68 338.99 461.147 340.95 457.053 343.243C453.093 345.47 444.507 350.856 449.053 351.83C450.08 351.79 455.28 348.336 459.067 345.816C467.28 340.363 469.68 338.963 470.973 339.576C471.547 343.923 461.907 348.643 457.573 352.07C456.92 352.59 457.413 353.696 458.187 353.47C461.413 352.47 467.387 349.443 473.72 344.096C480.293 338.536 489.68 327.736 495.053 321.043C496.453 320.723 538.267 284.163 546.24 263.283C554.227 242.403 559.867 134.003 528.573 138.123Z" fill="#FC7575"/>
</svg>
