<svg width="413" height="709" viewBox="0 0 413 709" fill="none" xmlns="http://www.w3.org/2000/svg">
<path d="M412.099 691.75C412.099 699.828 320.044 706.376 206.498 706.376C92.9282 706.376 0.895996 699.828 0.895996 691.75C0.895996 683.669 92.9282 677.124 206.498 677.124C320.044 677.124 412.099 683.669 412.099 691.75" fill="#653870"/>
<path d="M96.3424 224.617C95.1979 222.857 89.6212 216.672 85.6883 212.804C81.7345 208.938 81.5887 204.097 79.9031 203.619C78.5297 203.219 77.7182 206.632 80.0072 209.164C82.2338 211.657 85.8962 215.871 82.65 217.166C79.4246 218.445 67.1888 203.111 67.0431 202.951C65.8778 201.444 63.3599 199.005 63.0686 200.897C63.131 201.937 66.8142 207.032 69.3945 209.818C73.8685 214.671 75.242 216.258 75.0963 217.191C74.4304 217.632 71.4547 214.564 64.6917 207.978C57.2836 200.751 49.293 198.858 65.3993 212.525C69.8525 216.298 72.9529 219.765 72.4535 220.085C70.9344 221.071 68.1876 218.431 65.3784 216.204C62.6524 214.044 56.3472 209.539 57.2004 213.058C57.5749 213.778 61.4872 216.446 64.3588 218.391C70.56 222.618 72.2455 223.912 72.2663 225.004C69.6236 226.711 63.4431 221.244 59.8223 219.19C59.2812 218.872 58.6987 219.552 59.1149 220.031C60.8004 222.031 64.6916 225.379 70.2269 228.299C75.9702 231.324 86.0212 234.791 92.0975 236.631C92.1807 236.739 92.8257 237.138 93.9286 237.725C95.9887 233.738 98.2361 229.872 100.9 226.311C98.0905 225.298 96.3632 224.644 96.3424 224.617" fill="#FD5E5A"/>
<path d="M201.481 134.856C201.481 134.856 188.861 126.403 179.798 132.51C170.756 138.616 156.486 222.631 147.423 224.977C138.381 227.323 104.099 219.282 104.099 219.282L86.5508 238.844C86.5508 238.844 144.123 259.484 156.186 255.616C168.249 251.749 189.825 195.936 189.825 195.936L201.481 134.856" fill="#459FB2"/>
<path d="M259.5 109.027C259.5 109.027 282.76 134.628 290.758 150.614C298.734 166.588 340.553 216.387 340.553 216.387L321.281 238.001L259.5 179.508C259.5 179.508 245.175 174.108 259.5 109.027" fill="#9DE5F4"/>
<path d="M205.169 443.764L203.965 456.444C203.965 456.444 212.326 471.59 210.499 498.271C208.651 524.95 193.348 658.35 190.36 672.524L191.005 687.35C191.005 687.35 162.205 688.483 153.758 689.097C153.758 689.097 174.671 681.336 180.281 674.377C185.482 667.951 163.43 463.885 163.43 463.885L165.321 438.537L205.169 443.764" fill="#FD5E5A"/>
<path d="M192.197 453.322L198.618 483.083C198.618 483.083 200.787 512.056 201.481 523.229C202.175 534.388 225.188 671.895 225.188 671.895L214.538 697.589C214.538 697.589 213.931 703.456 218.637 707.176C223.366 710.883 231.738 705.669 233.516 703.788C235.295 701.923 234.471 688.616 233.733 677.016C233.018 665.416 244.448 505.215 237.421 490.681C230.393 476.149 228.615 457.749 228.615 457.749L192.197 453.322" fill="#FC7575"/>
<path d="M198.171 109.031H259.488C259.488 109.031 253.149 173.164 259.488 179.512C259.488 179.512 231.65 251.044 231.65 265.15C231.65 279.243 259.488 287.351 259.488 337.391C259.488 387.431 242.585 478.35 242.585 478.35H160.117C160.117 478.35 156.785 434.751 162.274 386.937C167.916 337.87 181.856 277.405 180.07 262.057C176.541 231.739 164.801 187.497 170.442 169.178C176.084 150.844 198.171 109.031 198.171 109.031" fill="#013C66"/>
<path d="M181.267 459.322C181.267 459.322 197.215 215.002 197.215 196.683L198.178 109.029C198.178 109.029 174.225 136.508 164.356 161.883C154.488 187.256 167.974 189.135 167.974 227.201C167.974 265.255 147.424 456.029 147.424 456.029L181.267 459.322" fill="#5CD4ED"/>
<path d="M238.342 109.031L210.99 196.683L205.23 459.324H278.526C278.526 459.324 263.723 290.165 251.744 264.791C239.743 239.419 259.496 179.512 259.496 179.512V109.031H238.342" fill="#5CD4ED"/>
<path d="M175.627 115.723L199.547 111.71L197.191 196.682L183.743 152.855L189.718 150.256L180.916 144.977L175.627 115.723" fill="#9DE5F4"/>
<path d="M256.684 109.028L227.976 108.815L210.999 196.682L238.358 161.536L235.18 157.309L241.884 155.549L256.684 109.028" fill="#9DE5F4"/>
<path d="M194.909 135.708C197.729 141.055 186.429 167.895 176.539 180.215C172.873 170.11 171.051 159.109 170.639 148.616C170.357 142.909 169.663 137.11 174.283 134.229C179.293 131.108 192.372 130.909 194.909 135.708V135.708ZM240.11 108.601C232.41 90.8118 202.869 89.3716 183.002 127.469C179.402 127.549 175.346 128.256 171.897 130.414C165.455 134.442 165.802 141.549 166.063 147.256C166.106 147.494 166.475 168.696 173.199 183.934C164.675 192.363 159.079 191.628 152.442 191.215C149.622 191.042 149.102 195.269 151.878 195.722C160.055 197.054 167.668 195.189 175.367 188.081C187.904 208.602 208.096 197.815 202.956 193.415C202.002 192.614 200.57 192.721 199.789 193.669C196.254 197.828 184.976 196.135 178.621 184.735C187.297 174.855 203.78 142.868 198.879 133.615C196.796 129.655 192.372 128.243 187.947 127.709C206.144 94.6161 230.089 96.7503 235.967 110.388C242.561 125.668 229.309 182.709 229.309 183.976C229.309 185.229 230.328 186.229 231.564 186.229C233.776 186.229 233.776 184.242 234.384 181.362C242.409 142.922 244.339 118.442 240.11 108.601" fill="#002B32"/>
<path d="M241.558 187.538C241.558 193.417 236.79 198.189 230.895 198.189C225.022 198.189 220.254 193.417 220.254 187.538C220.254 181.656 225.022 176.897 230.895 176.897C236.79 176.897 241.558 181.656 241.558 187.538Z" fill="#002B32"/>
<path d="M230.915 195.364C226.606 195.364 223.076 191.856 223.076 187.536C223.076 183.216 226.606 179.71 230.915 179.71C235.225 179.71 238.733 183.216 238.733 187.536C238.733 191.856 235.225 195.364 230.915 195.364Z" fill="#99C5CC"/>
<path d="M264.899 359.711H220.265V293.685H264.899V359.711Z" fill="#9DE5F4"/>
<path d="M224.697 698.257C221.085 697.097 218.705 693.697 217.299 690.844L214.509 697.59C214.509 697.59 213.925 703.456 218.641 707.177C223.334 710.884 231.727 705.671 233.5 703.789C234.452 702.79 234.647 698.523 234.517 692.99C232.116 696.085 228.482 699.47 224.697 698.257" fill="#1C3135"/>
<path d="M169.634 681.577C169.634 681.577 150.595 687.097 151.428 689.563C152.261 692.028 192.071 688.229 192.071 688.229L191.045 677.229C191.045 677.229 173.63 684.376 171.514 683.789C169.399 683.216 169.634 681.577 169.634 681.577" fill="#1C3135"/>
<path d="M237.405 79.0997C237.405 79.0997 255.525 87.935 261.886 99.1418C268.247 110.349 271.941 121.413 271.941 121.413L265.558 124.268C265.558 124.268 264.728 118.561 262.564 114.535L266.542 135.267L258.192 137.842C258.192 137.842 253.077 123.547 251.306 115.042L256.072 137.842L247.634 138.935C247.634 138.935 242.301 130.88 242.301 123.175L243.109 138.935L226.738 137.442C226.738 137.442 226.322 110.187 227.087 95.2598C227.328 90.5055 228.268 85.1414 229.404 82.5424C231.896 76.9729 237.405 79.0997 237.405 79.0997Z" fill="#002B32"/>
<path d="M240.602 80.1606L240.385 80.438C238.067 83.5406 234.275 85.1721 230.418 84.7149L228.252 84.4592L225.479 76.5012L237.828 72.2026L240.602 80.1606" fill="#3BD7E6"/>
<path d="M240.87 11.8638C237.181 8.17285 222.209 7.29627 222.209 7.29627H221.081C216.394 5.50614 191.571 42.3915 194.717 62.0633C197.842 81.7352 200.077 79.7217 214.159 82.1823C228.241 84.6407 238.743 74.1343 242.302 62.5103C245.86 50.8864 244.559 15.5547 240.87 11.8638" fill="#002B32"/>
<path d="M200.514 74.8075C199.52 75.8114 203.579 104.855 199.542 112.895C199.542 112.895 200.276 127.601 207.487 128.456C213.748 129.203 225.082 121.79 226.334 116.056C228.018 108.335 226.334 69.7772 226.334 69.7772L200.514 74.8075" fill="#FC7575"/>
<path d="M200.924 86.8311C210.463 95.47 219.484 91.5379 226.714 80.7085C226.563 75.2485 226.347 70.095 226.325 69.7799L200.493 74.8105C200.083 75.2205 200.536 80.3611 200.924 86.8311Z" fill="#FD5E5A"/>
<path d="M203.525 9.54674C203.525 9.54674 191.444 11.8526 189.994 22.2212C188.565 32.5898 186.551 41.2307 188.565 53.3271C190.578 65.4235 197.766 81.5512 209.588 84.1428C221.388 86.7366 233.772 67.1512 233.772 56.4946C233.772 45.838 238.102 27.9803 230.026 17.0358C221.972 6.09122 203.525 9.54674 203.525 9.54674" fill="#FC7575"/>
<path d="M203.529 9.54698C203.529 9.54698 191.437 11.8533 189.992 22.2211C188.699 31.6168 186.91 39.5942 188.096 50.0159C190.014 48.6859 192.752 47.3474 196.588 46.0821C209.801 41.7346 221.613 16.2116 222.109 15.1274L222.324 14.6748L222.346 14.1769C222.411 13.166 222.281 12.1055 221.98 11.0385C213.509 7.68033 203.529 9.54698 203.529 9.54698" fill="#FD5E5A"/>
<path d="M230.608 50.4478C230.608 50.4478 235.229 45.1191 237.507 42.8149C239.829 40.5107 245.578 17.7572 239.829 9.98111C234.057 2.20498 223.035 1.77321 214.227 0.764314C205.396 -0.244588 191.423 6.47053 190.642 19.6014C190.642 19.6014 213.315 10.9878 219.651 14.0145C225.986 17.0369 228.59 20.6386 229.892 27.6944C231.172 34.7524 230.608 50.4478 230.608 50.4478Z" fill="#002B32"/>
<path d="M230.611 50.4477C230.611 50.4477 233.69 37.0756 238.808 40.3069C243.948 43.5339 238.44 58.3396 233.647 58.3396C228.876 58.3396 230.611 50.4477 230.611 50.4477" fill="#FC7575"/>
<path d="M235.574 43.1208C235.574 43.1208 228.013 55.2751 233.191 53.934C238.391 52.5929 240.449 40.8589 235.574 43.1208Z" fill="#FD5E5A"/>
<path d="M239.167 79.7172C245.993 81.9225 252.578 84.9265 258.66 88.8646C261.702 90.8643 264.524 93.0784 267.302 95.3866C270.103 97.7539 272.75 100.049 275.201 103.123L272.969 104.602C271.022 102.003 268.353 99.4604 265.749 97.1413C263.102 94.8024 260.345 92.5161 257.501 90.5142C254.635 88.508 251.594 86.7249 248.421 85.1431C245.292 83.5612 242.011 82.1326 238.751 80.9927L239.167 79.7172" fill="#3BD7E6"/>
<path d="M237.6 80.4025C241.825 82.3004 245.809 84.6383 249.662 87.2236C253.493 89.8176 257.105 92.7247 260.52 95.8923C263.935 99.0336 267.065 102.512 269.867 106.257C272.756 109.94 275.055 114.059 277.178 118.258L274.727 119.339C272.866 115.233 270.874 111.139 268.225 107.418C265.686 103.659 262.796 100.102 259.578 96.8511C256.382 93.5762 252.945 90.5269 249.268 87.7708C245.59 85.0214 241.716 82.5018 237.6 80.4025Z" fill="#3BD7E6"/>
<path d="M203.421 58.361C203.743 55.054 203.958 51.7385 203.915 48.4035C203.185 52.6275 203.013 55.7047 202.755 58.7712C204.516 59.2522 206.642 60.2357 209.284 59.2372C207.265 59.6237 205.246 59.046 203.421 58.361Z" fill="#172866"/>
<path d="M209.957 48.0903C210.56 46.1864 212.177 44.3623 214.398 43.7694C218.366 42.7366 220.759 48.4266 223.475 48.3705C221.535 49.3667 218.43 46.0419 216.296 45.1946C215.131 44.7267 214.096 45.0502 212.954 45.5914C211.832 46.1649 210.841 47.0553 209.957 48.0903" fill="#172866"/>
<path d="M217.129 46.3765C217.129 47.5796 216.268 48.5525 215.192 48.5525C214.137 48.5525 213.276 47.5796 213.276 46.3765C213.276 45.1756 214.137 44.2006 215.192 44.2006C216.268 44.2006 217.129 45.1756 217.129 46.3765Z" fill="#172866"/>
<path d="M201.177 49.3271C200.491 47.4503 198.799 45.7022 196.528 45.2094C192.543 44.3567 190.401 50.1477 187.68 50.2163C189.672 51.1247 192.629 47.6604 194.728 46.7177C195.864 46.1971 196.914 46.4756 198.071 46.964C199.227 47.4868 200.234 48.3309 201.177 49.3271" fill="#172866"/>
<path d="M193.935 47.9414C194.021 49.1422 194.898 50.0754 195.968 50.0283C197.039 49.9791 197.852 48.9688 197.809 47.768C197.745 46.5694 196.846 45.6341 195.776 45.6812C194.727 45.7304 193.914 46.7428 193.935 47.9414Z" fill="#172866"/>
<path d="M208.558 38.8708C208.127 38.5905 211.577 35.1269 215.718 34.7366C219.859 34.3441 224.323 38.8708 224.323 38.8708C224.323 38.8708 218.22 35.2391 215.653 36.4145C213.087 37.5856 210.952 40.4193 208.558 38.8708Z" fill="#172866"/>
<path d="M202.833 70.216C202.381 70.1536 202.51 69.4715 202.941 69.5533C203.005 69.5597 209.805 70.4785 215.464 66.0181C215.808 65.7449 216.217 66.2698 215.872 66.5452C212.042 69.5683 206.577 70.7819 202.833 70.216Z" fill="#172866"/>
<path d="M207.925 72.4114C207.753 72.4114 207.602 72.2758 207.602 72.0994C207.538 71.267 212.549 71.865 214.399 68.8148C214.636 68.4362 215.195 68.7868 214.959 69.1654C213.238 71.9789 208.161 72.392 207.946 72.4092C207.946 72.4113 207.925 72.4114 207.925 72.4114Z" fill="#172866"/>
<path d="M209.213 44.872C208.069 44.872 207.119 45.8196 207.119 46.9852V50.4498C207.119 51.6154 208.069 52.563 209.213 52.563H223.956C225.121 52.563 226.071 51.6154 226.071 50.4498V46.9852C226.071 45.8196 225.121 44.872 223.956 44.872H209.213ZM223.956 53.9055H209.213C207.335 53.9055 205.759 52.3557 205.759 50.4498V46.9852C205.759 45.0814 207.335 43.5316 209.213 43.5316H223.956C225.855 43.5316 227.409 45.0814 227.409 46.9852V50.4498C227.409 52.3557 225.855 53.9055 223.956 53.9055Z" fill="black"/>
<path d="M186.429 44.8748C185.571 44.8748 184.864 45.5714 184.864 46.4265V51.011C184.864 51.8662 185.571 52.5649 186.429 52.5649H199.631C200.488 52.5649 201.196 51.8662 201.196 51.011V46.4265C201.196 45.5714 200.488 44.8748 199.631 44.8748H186.429ZM199.631 53.9065H186.429C184.821 53.9065 183.535 52.6077 183.535 51.011V46.4265C183.535 44.8319 184.821 43.5331 186.429 43.5331H199.631C201.238 43.5331 202.524 44.8319 202.524 46.4265V51.011C202.524 52.6077 201.238 53.9065 199.631 53.9065Z" fill="black"/>
<path d="M202.4 3.14547C191.307 5.59452 187.968 22.6561 178.9 31.7286C169.832 40.801 172.137 53.9057 176.445 62.5452C180.774 71.1869 187.688 65.5715 187.688 65.5715C187.688 65.5715 184.07 67.5876 181.786 60.3847C179.482 53.1884 183.51 47.5687 195.744 43.5365C207.979 39.5065 219.653 14.0164 219.653 14.0164C219.955 9.03218 213.493 0.698568 202.4 3.14547" fill="#034147"/>
<path d="M187.688 65.5701C183.488 68.0233 177.566 57.726 181.895 51.0041C185.039 45.8049 191.931 43.6145 197.445 41.3337C206.168 36.3197 214.546 22.4753 219.65 14.0152C215.967 24.11 208.149 38.1095 198.716 43.6899L196.454 44.6742C194.107 45.6111 187.021 47.5236 183.596 52.1391C180.839 55.7618 182.153 61.3896 183.984 64.056C184.781 65.2039 186.202 66.1086 187.688 65.5701" fill="#023135"/>
<path d="M206.654 49.073H201.805V47.7469H206.654V49.073Z" fill="black"/>
<path d="M255.642 238.858L310.415 294.79L392.191 200.284L334.729 153.604L255.642 238.858Z" fill="#013C66"/>
<path d="M337.254 162.699C332.255 167.712 266.064 237.778 266.064 237.778L310.589 282.713L379.977 201.179L337.254 162.699" fill="#FFDA88"/>
<path d="M266.465 237.761L310.589 282.282L379.579 201.203L337.28 163.095C331.198 169.269 270.384 233.628 266.465 237.761V237.761ZM310.611 283.136L310.409 282.908L265.676 237.775L265.856 237.577C266.532 236.869 332.099 167.455 337.077 162.496L337.257 162.295L337.46 162.482L380.39 201.149L380.21 201.363L310.611 283.136" fill="#0071BC"/>
<path d="M324.883 268.522C324.883 268.522 326.2 269.829 330.149 272.281C333.987 274.669 337.846 270.936 338.65 270.215C340.211 268.843 342.309 266.242 343.358 264.561C344.384 262.895 344.919 261.788 345.299 260.054C345.834 257.509 336.285 249.642 335.37 250.282C334.79 250.708 334.321 251.295 334.522 251.949C334.723 252.642 339.988 260.309 339.988 260.309C339.988 260.309 332.447 252.841 330.238 253.069C328.029 253.31 328.319 254.655 328.877 255.295C329.457 255.922 336.575 264.921 336.575 264.921C336.575 264.921 327.583 258.029 326.133 258.176C324.705 258.334 323.723 260.202 327.337 263.27C329.368 264.988 332.692 269.109 332.692 269.109C332.692 269.109 325.932 264.896 323.768 265.121C321.603 265.362 324.883 268.522 324.883 268.522" fill="#FC7575"/>
</svg>
