<svg width="87" height="87" viewBox="0 0 87 87" fill="none" xmlns="http://www.w3.org/2000/svg">
<path d="M69.9341 29.1814C69.9341 30.4067 69.1901 31.5086 68.0537 31.9646C62.8133 34.0693 54.5091 36.4104 43.5 36.4104C32.4909 36.4104 24.1867 34.0693 18.9463 31.9646C17.8099 31.5086 17.0659 30.4067 17.0659 29.1814C17.0659 27.0747 19.1839 25.6164 21.146 26.3837C26.393 28.4347 33.9233 30.4027 43.5 30.4027C53.0767 30.4027 60.607 28.4347 65.854 26.3837C67.8161 25.6164 69.9341 27.0747 69.9341 29.1814Z" fill="#828282"/>
<path d="M68.0537 29.6686C62.8133 31.7734 54.5091 34.1145 43.5 34.1145C32.4909 34.1145 24.1867 31.7734 18.9463 29.6686C18.1816 29.362 17.5962 28.7619 17.2942 28.0298C17.1482 28.3809 17.0659 28.7686 17.0659 29.1814C17.0659 30.4061 17.8093 31.5079 18.9463 31.9646C24.1867 34.0693 32.4909 36.4104 43.5 36.4104C54.5091 36.4104 62.8133 34.0693 68.053 31.9646C69.1901 31.5079 69.9335 30.4061 69.9335 29.1814C69.9335 28.7686 69.8512 28.3809 69.7058 28.0298C69.4038 28.7619 68.8184 29.362 68.0537 29.6686Z" fill="#5A5A5A"/>
<path d="M21.3571 71.5982H65.6429V80.8675H21.3571V71.5982Z" fill="#F76C57"/>
<path d="M23.9318 61.9863H63.0676V71.255H23.9318V61.9863Z" fill="#F76C57"/>
<path d="M60.6648 61.9863V67.8221C60.6648 68.3909 60.2035 68.8522 59.6346 68.8522H23.9318V71.255H63.0676V61.9863H60.6648Z" fill="#E5554E"/>
<path d="M63.2395 71.5982V77.4346C63.2395 78.0034 62.7782 78.4647 62.21 78.4647H21.3571V80.8675H65.6429V71.5982H63.2395Z" fill="#E5554E"/>
<path d="M74.5685 21.8204H81.4344V70.5687H74.5685V21.8204Z" fill="#DCE6EB"/>
<path d="M78.8597 21.8204H81.4344V70.5687H78.8597V21.8204Z" fill="#C8D2DC"/>
<path d="M82.8077 11.8647C82.8077 14.519 80.6558 16.6709 78.0014 16.6709C75.3471 16.6709 73.1952 14.519 73.1952 11.8647C73.1952 9.2103 75.3471 7.0584 78.0014 7.0584C80.6558 7.0584 82.8077 9.2103 82.8077 11.8647Z" fill="#FFE046"/>
<path d="M80.4129 7.70821C80.8251 8.41711 81.0627 9.24083 81.0627 10.1196C81.0627 12.774 78.9108 14.9259 76.2564 14.9259C75.3769 14.9259 74.5539 14.6889 73.8443 14.2768C74.6767 15.7078 76.2266 16.6709 78.0014 16.6709C80.6558 16.6709 82.8077 14.519 82.8077 11.8647C82.8077 10.0898 81.8446 8.54057 80.4129 7.70821Z" fill="#FFD508"/>
<path d="M72.852 16.6709H83.1509V21.8204H72.852V16.6709Z" fill="#FFE046"/>
<path d="M81.0912 16.6709V19.0737C81.0912 19.4534 80.7839 19.7607 80.4042 19.7607H72.852V21.8204H83.1509V16.6709H81.0912Z" fill="#FFD508"/>
<path d="M72.852 70.5687H83.1509V75.7181H72.852V70.5687Z" fill="#828282"/>
<path d="M81.0912 70.5687V72.6283C81.0912 73.1972 80.6299 73.6585 80.0611 73.6585H72.852V75.7181H83.1509V70.5687H81.0912Z" fill="#5A5A5A"/>
<path d="M70.2773 75.7181H85.7256V80.8675H70.2773V75.7181Z" fill="#828282"/>
<path d="M83.494 75.7181V77.6065C83.494 78.1747 83.0327 78.636 82.4645 78.636H70.2773V80.8675H85.7256V75.7181H83.494Z" fill="#5A5A5A"/>
<path d="M5.56561 21.8204H12.4315V70.5687H5.56561V21.8204Z" fill="#DCE6EB"/>
<path d="M9.8568 21.8204H12.4315V70.5687H9.8568V21.8204Z" fill="#C8D2DC"/>
<path d="M13.8048 11.8647C13.8048 14.519 11.6529 16.6709 8.99856 16.6709C6.34419 16.6709 4.19229 14.519 4.19229 11.8647C4.19229 9.2103 6.34419 7.0584 8.99856 7.0584C11.6529 7.0584 13.8048 9.2103 13.8048 11.8647Z" fill="#FFE046"/>
<path d="M11.41 7.70821C11.8222 8.41711 12.0598 9.24083 12.0598 10.1196C12.0598 12.774 9.90791 14.9259 7.25354 14.9259C6.37406 14.9259 5.551 14.6889 4.84211 14.2768C5.67446 15.7078 7.22367 16.6709 8.99856 16.6709C11.6529 16.6709 13.8048 14.519 13.8048 11.8647C13.8048 10.0898 12.8417 8.54057 11.41 7.70821Z" fill="#FFD508"/>
<path d="M3.84913 16.6709H14.148V21.8204H3.84913V16.6709Z" fill="#FFE046"/>
<path d="M12.0883 16.6709V19.0737C12.0883 19.4534 11.781 19.7607 11.4014 19.7607H3.84913V21.8204H14.148V16.6709H12.0883Z" fill="#FFD508"/>
<path d="M3.84913 70.5687H14.148V75.7181H3.84913V70.5687Z" fill="#828282"/>
<path d="M12.0883 70.5687V72.6283C12.0883 73.1972 11.627 73.6585 11.0582 73.6585H3.84913V75.7181H14.148V70.5687H12.0883Z" fill="#5A5A5A"/>
<path d="M1.27441 75.7181H16.7227V80.8675H1.27441V75.7181Z" fill="#828282"/>
<path d="M14.4911 75.7181V77.6065C14.4911 78.1747 14.0305 78.636 13.4617 78.636H1.27441V80.8675H16.7227V75.7181H14.4911Z" fill="#5A5A5A"/>
<path d="M50.0227 49.284L52.4694 50.2252C53.2187 50.5133 53.8082 51.1106 54.0856 51.864L55.601 55.9786L57.117 51.864C57.3944 51.1106 57.9832 50.5133 58.7326 50.2252L61.1798 49.284L58.7326 48.3434C57.9832 48.0547 57.3944 47.4573 57.117 46.704L55.601 42.59L54.0856 46.704C53.8075 47.4573 53.2187 48.0547 52.4694 48.3434L50.0227 49.284Z" fill="#FFE046"/>
<path d="M58.7332 48.3434C58.0529 48.0819 57.5079 47.5642 57.2046 46.9077C56.8953 48.8857 55.5837 50.5312 53.8062 51.3098C53.9183 51.4823 54.0133 51.6675 54.0856 51.8647L55.6016 55.9786L57.117 51.8647C57.3944 51.1106 57.9832 50.5133 58.7332 50.2252L61.1798 49.284L58.7332 48.3434Z" fill="#FFD508"/>
<path d="M26.6784 13.0661L29.125 14.0073C29.8751 14.2953 30.4638 14.8927 30.7413 15.6461L32.2573 19.7607L33.7726 15.6461C34.0501 14.8927 34.6388 14.2953 35.3889 14.0073L37.8355 13.0661L35.3889 12.1255C34.6388 11.8368 34.0501 11.2394 33.7726 10.486L32.2573 6.37207L30.7413 10.486C30.4638 11.2394 29.8751 11.8368 29.125 12.1255L26.6784 13.0661Z" fill="#FFE046"/>
<path d="M35.3889 12.1255C34.7085 11.864 34.1636 11.3463 33.8603 10.6898C33.5509 12.6678 32.24 14.3133 30.4618 15.0919C30.574 15.2644 30.6689 15.4496 30.7413 15.6468L32.2573 19.7607L33.7726 15.6468C34.0508 14.8927 34.6395 14.296 35.3889 14.0073L37.8355 13.0667L35.3889 12.1255Z" fill="#FFD508"/>
<path d="M59.6346 13.311C60.3389 13.311 60.909 12.7402 60.909 12.0366V11.0064C60.909 10.3028 60.3389 9.73201 59.6346 9.73201C58.931 9.73201 58.3602 10.3028 58.3602 11.0064V12.0366C58.3602 12.7402 58.931 13.311 59.6346 13.311Z" fill="black"/>
<path d="M60.4205 14.0962C60.4205 14.7998 60.9907 15.3706 61.6949 15.3706H62.7244C63.4286 15.3706 63.9988 14.7998 63.9988 14.0962C63.9988 13.3926 63.4286 12.8218 62.7244 12.8218H61.6949C60.9907 12.8218 60.4205 13.3926 60.4205 14.0962Z" fill="black"/>
<path d="M59.6346 14.8814C58.931 14.8814 58.3602 15.4523 58.3602 16.1559V17.186C58.3602 17.8896 58.931 18.4604 59.6346 18.4604C60.3389 18.4604 60.909 17.8896 60.909 17.186V16.1559C60.909 15.4523 60.3389 14.8814 59.6346 14.8814Z" fill="black"/>
<path d="M56.5455 15.3706H57.575C58.2792 15.3706 58.8494 14.7998 58.8494 14.0962C58.8494 13.3926 58.2792 12.8218 57.575 12.8218H56.5455C55.8412 12.8218 55.2711 13.3926 55.2711 14.0962C55.2711 14.7998 55.8412 15.3706 56.5455 15.3706Z" fill="black"/>
<path d="M27.0216 40.6286C26.318 40.6286 25.7471 41.1994 25.7471 41.903V42.9332C25.7471 43.6367 26.318 44.2076 27.0216 44.2076C27.7251 44.2076 28.296 43.6367 28.296 42.9332V41.903C28.296 41.1994 27.7258 40.6286 27.0216 40.6286Z" fill="black"/>
<path d="M30.1114 46.2672C30.8156 46.2672 31.3858 45.697 31.3858 44.9928C31.3858 44.2892 30.8156 43.7184 30.1114 43.7184H29.0819C28.3776 43.7184 27.8074 44.2892 27.8074 44.9928C27.8074 45.697 28.3776 46.2672 29.0819 46.2672H30.1114Z" fill="black"/>
<path d="M27.0216 45.778C26.318 45.778 25.7471 46.3488 25.7471 47.0524V48.0826C25.7471 48.7862 26.318 49.357 27.0216 49.357C27.7251 49.357 28.296 48.7862 28.296 48.0826V47.0524C28.296 46.3488 27.7258 45.778 27.0216 45.778Z" fill="black"/>
<path d="M23.9318 43.7184C23.2282 43.7184 22.6574 44.2892 22.6574 44.9928C22.6574 45.697 23.2282 46.2672 23.9318 46.2672H24.9619C25.6655 46.2672 26.2363 45.697 26.2363 44.9928C26.2363 44.2892 25.6655 43.7184 24.9619 43.7184H23.9318Z" fill="black"/>
</svg>
